<?xml version="1.0" encoding="utf-8"?>
<!-- Generator: Adobe Illustrator 15.0.0, SVG Export Plug-In . SVG Version: 6.00 Build 0)  -->
<!DOCTYPE svg PUBLIC "-//W3C//DTD SVG 1.1//EN" "http://www.w3.org/Graphics/SVG/1.1/DTD/svg11.dtd">
<svg version="1.1" id="图层_1" xmlns="http://www.w3.org/2000/svg" xmlns:xlink="http://www.w3.org/1999/xlink" x="0px" y="0px"
	 width="150px" height="100px" viewBox="0 75 595.2 441.92" enable-background="new 0 0 595.2 841.92" xml:space="preserve">
<g id="A_-_配色方案_-_纯白_1_" enable-background="new    ">
	<g id="A_-_配色方案_-_纯白">
		<g>
			<path d="M315.184,427.215c0,0-13.932,6.832-29.66,14.545c-20.381,9.994-43.776,21.467-43.776,21.467l88.184-11.366
				l-10.152-11.201L315.184,427.215z M451.325,497.146C430.274,450.167,323.379,211.611,301.51,162.81
				c-3.909-8.998-3.909-8.933-7.718-0.194c-21.654,48.515-129.402,289.037-149.988,334.991c-3.403,7.577-3.403,7.577,3.774,2.28
				c28.122-20.811,129.271-95.665,129.271-95.665l-40.36-23.631l-6.483,4.582L297.6,248.64l107.65,208.089l-15.49,11.027
				c0,0,40.971,23.529,57.939,33.275C454.958,505.186,454.958,505.186,451.325,497.146z M372.719,413.76l-18.279-12.265l-10.557-1.5
				l-60.152-57.534l-40.61,32.899l75.512,46.131l7.156,17.982l12.424,16.242l16.178,3.409l14.906,3.141l-2.996,6.782l9.137-5.891
				l8.982,0.809l12.666-8.771L372.719,413.76z M352.034,450.877l-13.813-5.902l-4.914-13.99l27.998,20.054L352.034,450.877z" fill="white"/>
		</g>
	</g>
</g>
<g id="形状_9_1_" enable-background="new    ">
	<g id="形状_9">
		<g>
			<path d="M351.561,421.2l22.713,17.383l-5.316-10.14L351.561,421.2z M383.456,460.07l4.59-2.656l-10.389-1.448L383.456,460.07z
				 M389.254,447.757l0.242,7.968l3.623-2.173L389.254,447.757z" fill="white"/>
		</g>
	</g>
</g>
<g id="形状_11_1_" enable-background="new    ">
	<g id="形状_11">
		<g>
			<polygon points="357.6,453.12 353.28,453.12 336.481,446.4 333.36,438.96 321.6,425.28 327.36,438.24 339.36,454.08 
				373.92,461.76 380.161,461.28 			" fill="white"/>
		</g>
	</g>
</g>
<g id="形状_10_1_" enable-background="new    ">
	<g id="形状_10">
		<g>
			<polygon points="317.76,413.28 290.64,401.52 319.68,418.08 			" fill="white"/>
		</g>
	</g>
</g>
</svg>
